<svg width="254" height="49" viewBox="0 0 254 49" fill="none" xmlns="http://www.w3.org/2000/svg">
<path d="M5.804 37C4.748 37 3.772 36.744 2.876 36.232C2.012 35.688 1.308 34.984 0.764 34.12C0.252 33.224 -0.00399995 32.248 -0.00399995 31.192V21.112H24.38V14.968C24.38 14.456 24.188 14.024 23.804 13.672C23.452 13.288 23.02 13.096 22.508 13.096H-0.00399995V9.16H22.508C23.596 9.16 24.572 9.432 25.436 9.976C26.332 10.488 27.036 11.192 27.548 12.088C28.092 12.952 28.364 13.912 28.364 14.968V37H5.804ZM5.804 33.064H24.38V25.048H3.932V31.192C3.932 31.704 4.108 32.152 4.46 32.536C4.844 32.888 5.292 33.064 5.804 33.064ZM33.3241 37V9.16H37.2601V37H33.3241ZM33.3241 3.976V0.0399981H37.2601V3.976H33.3241ZM62.1466 37C61.0906 37 60.1146 36.744 59.2186 36.232C58.3546 35.688 57.6506 34.984 57.1066 34.12C56.5946 33.224 56.3386 32.248 56.3386 31.192V14.968C56.3386 13.912 56.5946 12.952 57.1066 12.088C57.6506 11.192 58.3546 10.488 59.2186 9.976C60.1146 9.432 61.0906 9.16 62.1466 9.16H78.8506C79.9386 9.16 80.9146 9.432 81.7786 9.976C82.6746 10.488 83.3786 11.192 83.8906 12.088C84.4346 12.952 84.7066 13.912 84.7066 14.968V25.048H60.2746V31.192C60.2746 31.704 60.4506 32.152 60.8026 32.536C61.1866 32.888 61.6346 33.064 62.1466 33.064H84.7066V37H62.1466ZM60.2746 21.112H80.7226V14.968C80.7226 14.456 80.5306 14.024 80.1466 13.672C79.7946 13.288 79.3626 13.096 78.8506 13.096H62.1466C61.6346 13.096 61.1866 13.288 60.8026 13.672C60.4506 14.024 60.2746 14.456 60.2746 14.968V21.112ZM88.5361 37V36.952L100.152 22.84L88.5361 9.208V9.16H93.7201L102.744 19.72L111.816 9.16H116.952V9.208L105.336 22.84L117 36.952V37H111.816L102.744 25.864L93.7201 37H88.5361ZM122.155 48.04V9.16H144.715C145.771 9.16 146.731 9.432 147.595 9.976C148.491 10.488 149.195 11.192 149.707 12.088C150.251 12.952 150.523 13.912 150.523 14.968V31.192C150.523 32.248 150.251 33.224 149.707 34.12C149.195 34.984 148.491 35.688 147.595 36.232C146.731 36.744 145.771 37 144.715 37H126.091V48.04H122.155ZM128.011 33.064H144.715C145.227 33.064 145.659 32.888 146.01 32.536C146.395 32.152 146.587 31.704 146.587 31.192V14.968C146.587 14.456 146.395 14.024 146.01 13.672C145.659 13.288 145.227 13.096 144.715 13.096H128.011C127.499 13.096 127.051 13.288 126.667 13.672C126.283 14.024 126.091 14.456 126.091 14.968V31.192C126.091 31.704 126.283 32.152 126.667 32.536C127.051 32.888 127.499 33.064 128.011 33.064ZM159.742 37C158.686 37 157.71 36.744 156.814 36.232C155.95 35.688 155.246 34.984 154.702 34.12C154.19 33.224 153.934 32.248 153.934 31.192V0.0399981H157.87V31.192C157.87 31.704 158.046 32.152 158.398 32.536C158.782 32.888 159.23 33.064 159.742 33.064H164.446V37H159.742ZM173.709 37C172.653 37 171.677 36.744 170.781 36.232C169.917 35.688 169.213 34.984 168.669 34.12C168.157 33.224 167.901 32.248 167.901 31.192V14.968C167.901 13.912 168.157 12.952 168.669 12.088C169.213 11.192 169.917 10.488 170.781 9.976C171.677 9.432 172.653 9.16 173.709 9.16H190.413C191.501 9.16 192.477 9.432 193.341 9.976C194.237 10.488 194.941 11.192 195.453 12.088C195.997 12.952 196.269 13.912 196.269 14.968V31.192C196.269 32.248 195.997 33.224 195.453 34.12C194.941 34.984 194.237 35.688 193.341 36.232C192.477 36.744 191.501 37 190.413 37H173.709ZM173.709 33.064H190.413C190.925 33.064 191.357 32.888 191.709 32.536C192.093 32.152 192.285 31.704 192.285 31.192V14.968C192.285 14.456 192.093 14.024 191.709 13.672C191.357 13.288 190.925 13.096 190.413 13.096H173.709C173.197 13.096 172.749 13.288 172.365 13.672C172.013 14.024 171.837 14.456 171.837 14.968V31.192C171.837 31.704 172.013 32.152 172.365 32.536C172.749 32.888 173.197 33.064 173.709 33.064ZM200.715 37V14.968C200.715 13.912 200.971 12.952 201.483 12.088C202.027 11.192 202.731 10.488 203.595 9.976C204.491 9.432 205.467 9.16 206.523 9.16H222.171V13.096H206.523C206.011 13.096 205.563 13.288 205.179 13.672C204.827 14.024 204.651 14.456 204.651 14.968V37H200.715ZM231.037 37C229.981 37 229.005 36.744 228.109 36.232C227.245 35.688 226.541 34.984 225.997 34.12C225.485 33.224 225.229 32.248 225.229 31.192V14.968C225.229 13.912 225.485 12.952 225.997 12.088C226.541 11.192 227.245 10.488 228.109 9.976C229.005 9.432 229.981 9.16 231.037 9.16H247.741C248.829 9.16 249.805 9.432 250.669 9.976C251.565 10.488 252.269 11.192 252.781 12.088C253.325 12.952 253.597 13.912 253.597 14.968V25.048H229.165V31.192C229.165 31.704 229.341 32.152 229.693 32.536C230.077 32.888 230.525 33.064 231.037 33.064H253.597V37H231.037ZM229.165 21.112H249.613V14.968C249.613 14.456 249.421 14.024 249.037 13.672C248.685 13.288 248.253 13.096 247.741 13.096H231.037C230.525 13.096 230.077 13.288 229.693 13.672C229.341 14.024 229.165 14.456 229.165 14.968V21.112Z" fill="#EAE9F3"/>
</svg>
